<svg id="visual" viewBox="0 0 1920 1080" width="1920" height="1080" xmlns="http://www.w3.org/2000/svg" xmlns:xlink="http://www.w3.org/1999/xlink" version="1.1"><rect x="0" y="0" width="1920" height="1080" fill="#0f181d"></rect><path d="M0 806L29.2 808.8C58.3 811.7 116.7 817.3 174.8 818.2C233 819 291 815 349.2 808.8C407.3 802.7 465.7 794.3 523.8 796.8C582 799.3 640 812.7 698.2 823.8C756.3 835 814.7 844 872.8 840.8C931 837.7 989 822.3 1047.2 806.3C1105.3 790.3 1163.7 773.7 1221.8 767C1280 760.3 1338 763.7 1396.2 765.8C1454.3 768 1512.7 769 1570.8 777C1629 785 1687 800 1745.2 799.8C1803.3 799.7 1861.7 784.3 1890.8 776.7L1920 769L1920 1081L1890.8 1081C1861.7 1081 1803.3 1081 1745.2 1081C1687 1081 1629 1081 1570.8 1081C1512.7 1081 1454.3 1081 1396.2 1081C1338 1081 1280 1081 1221.8 1081C1163.7 1081 1105.3 1081 1047.2 1081C989 1081 931 1081 872.8 1081C814.7 1081 756.3 1081 698.2 1081C640 1081 582 1081 523.8 1081C465.7 1081 407.3 1081 349.2 1081C291 1081 233 1081 174.8 1081C116.7 1081 58.3 1081 29.2 1081L0 1081Z" fill="#242f41" stroke-linecap="round" stroke-linejoin="miter"></path></svg>